<svg width="24" height="24" viewBox="0 0 24 24" fill="none" xmlns="http://www.w3.org/2000/svg">
<path d="M5.16915 21.3594L5.60805 21.6032C7.41238 22.7248 9.50933 23.4076 11.7038 23.4076C18.0921 23.4076 23.4076 18.0921 23.4076 11.6062C23.4076 5.12037 18.0921 0 11.655 0C5.21793 0 0 5.16915 0 11.6062C0 13.8495 0.633963 16.0439 1.80433 17.897L2.09695 18.3359L0.975361 22.4323L5.16915 21.3594Z" fill="#CAB47C"/>
<path d="M7.89554 5.03336L6.96736 4.98428C6.67422 4.98428 6.38114 5.08243 6.18573 5.27868C5.74605 5.67117 5.01329 6.40707 4.81788 7.38835C4.47593 8.86022 5.01329 10.6264 6.28346 12.3926C7.55364 14.1588 9.99626 17.0044 14.2952 18.231C15.6631 18.6235 16.7379 18.3781 17.6172 17.8385C18.3012 17.3969 18.7408 16.7101 18.8874 15.9741L19.0339 15.2872C19.0828 15.091 18.9851 14.8457 18.7897 14.7476L15.712 13.3248C15.5165 13.2266 15.2723 13.2757 15.1257 13.472L13.9044 15.0419C13.8067 15.1401 13.6601 15.1891 13.5136 15.1401C12.6831 14.8457 9.89853 13.6682 8.38408 10.7245C8.33522 10.5774 8.33522 10.4301 8.43295 10.332L9.60539 9.00739C9.70313 8.86022 9.75194 8.66398 9.70312 8.51675L8.28641 5.32775C8.23748 5.18053 8.09094 5.03336 7.89554 5.03336Z" fill="#112542"/>
<defs>
<rect width="23.4076" height="23.4076" fill="white"/>
</defs>
</svg>