<svg width="44" height="27" viewBox="0 0 44 27" fill="none" xmlns="http://www.w3.org/2000/svg">
<path d="M42.9535 23.5335C42.8375 23.3336 42.1201 21.7292 38.6678 18.4315C35.0537 14.9784 35.5392 15.5392 39.8923 9.56839C42.5435 5.93208 43.6035 3.71144 43.2718 2.76211C42.7205 1.18131 40.167 2.10095 38.4929 2.11098L35.3894 2.12958C34.8121 2.13304 34.1761 1.98635 33.6836 2.28745C33.1587 2.61407 33.007 3.29477 32.776 3.86819C32.3657 4.88685 31.6137 6.63989 30.7141 8.21102C27.8255 13.2602 26.6684 13.5267 26.1964 13.213C25.0987 12.483 25.3738 10.2762 25.3738 8.71067C25.3738 3.81692 26.094 1.7767 23.9686 1.24929C23.262 1.07442 22.7442 0.957835 20.9398 0.938404C18.6257 0.913422 16.6649 0.946731 15.5564 1.50467C14.8174 1.87663 14.2483 2.70659 14.5962 2.75378C15.0251 2.81208 15.996 3.02304 16.5112 3.74475C16.6512 3.94016 16.7607 4.18694 16.8463 4.45486C17.3213 5.94084 17.2287 7.54705 17.2031 9.1069C17.1755 10.7911 16.987 12.8356 16.2603 13.2436C15.3838 13.7349 14.1836 12.7328 11.6078 8.14995C10.5526 6.27327 9.70283 4.23665 9.40526 3.49741C9.32766 3.30462 9.25645 3.10988 9.15014 2.93131C9.0595 2.77906 8.92682 2.59584 8.75702 2.46787C8.1789 2.03129 7.39476 2.05658 6.67032 2.06114L2.30437 2.08866C1.8305 2.09165 1.34769 2.07218 0.893788 2.20834C0.676103 2.27365 0.459156 2.3756 0.328595 2.53449C-0.166513 3.13959 0.452512 4.02335 0.769325 4.73812C2.10404 7.74944 6.13841 16.3657 10.5964 21.1463C14.3995 25.2203 18.592 26.0014 20.3952 26.141C20.9994 26.1878 21.6045 26.165 22.2106 26.165H22.5656C23.4409 26.165 24.4706 26.286 25.0556 25.6348C25.3411 25.3194 25.3962 24.7887 25.4066 24.5689C25.4097 24.5022 25.4084 24.4368 25.409 24.37C25.4151 23.7915 25.5173 20.8555 26.9651 20.3829C28.5483 19.8666 30.5819 23.8249 32.7369 25.3489C33.7496 26.065 34.6112 26.2383 35.1182 26.267C35.4418 26.2852 35.767 26.2459 36.0912 26.2412L37.4232 26.2219C39.5924 26.1906 44.0501 25.4053 42.9535 23.5335Z" fill="#BC9E5F"/>
<defs>
<rect width="43.1535" height="25.3292" fill="white" transform="translate(0.187744 0.938965)"/>
</defs>
</svg>