<svg width="18" height="18" viewBox="0 0 18 18" fill="none" xmlns="http://www.w3.org/2000/svg">
<path d="M17.9119 7.76376C17.588 5.40779 16.3396 3.27673 14.4413 1.83938C12.543 0.402024 10.1503 -0.223874 7.7896 0.0993703C5.42889 0.422615 3.29354 1.66852 1.8533 3.56301C0.413055 5.4575 -0.214103 7.84538 0.109792 10.2013C0.376639 12.1513 1.27453 13.9609 2.66683 15.3547C4.05912 16.7484 5.86957 17.6501 7.82263 17.9224C8.22227 17.9746 8.62489 18.0009 9.02794 18.0011C10.6564 18.0037 12.2543 17.5602 13.6475 16.7189C13.7453 16.6602 13.8305 16.5827 13.8984 16.4911C13.9662 16.3994 14.0152 16.2953 14.0427 16.1848C14.0702 16.0742 14.0756 15.9593 14.0586 15.8466C14.0416 15.734 14.0025 15.6258 13.9436 15.5282C13.8847 15.4306 13.8072 15.3455 13.7153 15.2779C13.6235 15.2102 13.5192 15.1613 13.4084 15.1338C13.1846 15.0784 12.948 15.114 12.7505 15.2327C11.7588 15.8267 10.639 16.1751 9.48475 16.2487C8.33049 16.3224 7.17534 16.1191 6.11595 15.6559C5.05655 15.1926 4.1237 14.483 3.39544 13.5862C2.66718 12.6895 2.16467 11.6317 1.92997 10.5015C1.69527 9.3712 1.73518 8.20126 2.04638 7.08954C2.35758 5.97781 2.93101 4.95662 3.71871 4.11139C4.50641 3.26617 5.48546 2.62147 6.57398 2.23125C7.6625 1.84103 8.82882 1.71662 9.97539 1.86843C11.0404 2.00974 12.0605 2.38571 12.9619 2.9691C13.8633 3.55248 14.6234 4.32867 15.1871 5.24142C15.7508 6.15418 16.1039 7.18064 16.221 8.24644C16.3381 9.31225 16.2162 10.3907 15.864 11.4037C15.7727 11.6472 15.6076 11.8564 15.3917 12.0021C15.1758 12.1478 14.9198 12.2228 14.6593 12.2168C14.316 12.2163 13.9868 12.08 13.744 11.8377C13.5012 11.5954 13.3646 11.2669 13.3642 10.9242V5.56617C13.3642 5.3361 13.2726 5.11545 13.1096 4.95277C12.9466 4.79009 12.7255 4.6987 12.495 4.6987C12.2644 4.6987 12.0433 4.79009 11.8803 4.95277C11.7173 5.11545 11.6257 5.3361 11.6257 5.56617V5.57426C10.9668 5.07792 10.1798 4.77915 9.35692 4.71292C8.53403 4.64669 7.70925 4.81574 6.97912 5.20028C6.24899 5.58482 5.6437 6.16895 5.23411 6.88431C4.82451 7.59966 4.62755 8.41664 4.66627 9.23965C4.70498 10.0626 4.97778 10.8576 5.45273 11.5315C5.92769 12.2054 6.58514 12.7304 7.34817 13.045C8.11119 13.3596 8.94821 13.4507 9.76126 13.3079C10.5743 13.165 11.3298 12.7939 11.9392 12.2382C12.1855 12.75 12.5713 13.1823 13.0523 13.4853C13.5334 13.7884 14.0904 13.95 14.6593 13.9517C15.2812 13.9577 15.8896 13.7702 16.3999 13.4154C16.9102 13.0605 17.2971 12.5559 17.5069 11.9716C17.9753 10.6211 18.1142 9.17855 17.9119 7.76376ZM9.01809 11.6385C8.50235 11.6385 7.99819 11.4858 7.56936 11.1999C7.14054 10.9139 6.80631 10.5075 6.60894 10.0319C6.41157 9.55642 6.35993 9.03316 6.46055 8.52834C6.56117 8.02352 6.80952 7.55982 7.17421 7.19586C7.53889 6.83191 8.00353 6.58405 8.50937 6.48364C9.0152 6.38323 9.53951 6.43476 10.016 6.63173C10.4925 6.8287 10.8997 7.16226 11.1863 7.59022C11.4728 8.01819 11.6257 8.52134 11.6257 9.03605C11.625 9.72601 11.35 10.3875 10.8611 10.8754C10.3723 11.3633 9.70945 11.6377 9.01809 11.6385Z" fill="#D9B568"/>
<defs>
<rect width="18" height="18" fill="white"/>
</defs>
</svg>