<svg width="29" height="27" viewBox="0 0 29 27" fill="none" xmlns="http://www.w3.org/2000/svg">
<path d="M1.21243 13.0872L7.69728 15.5815L10.2073 23.9002C10.3679 24.433 11.0001 24.6299 11.4197 24.2763L15.0345 21.2395C15.4134 20.9214 15.9531 20.9055 16.3491 21.2017L22.8688 26.0797C23.3177 26.416 23.9537 26.1625 24.0663 25.6035L28.8423 1.92832C28.9652 1.31771 28.383 0.808318 27.8188 1.03319L1.20483 11.6136C0.548054 11.8746 0.553777 12.8328 1.21243 13.0872ZM9.8028 14.2537L22.4766 6.20954C22.7044 6.06539 22.9387 6.38278 22.7431 6.56975L12.2836 16.5893C11.9159 16.942 11.6788 17.414 11.6116 17.9262L11.2553 20.6473C11.2081 21.0106 10.7129 21.0467 10.6156 20.6951L9.24527 15.7331C9.08832 15.1672 9.31704 14.5627 9.8028 14.2537Z" fill="#BC9E5F"/>
<defs>
<rect x="0.715332" y="0.938965" width="28.1436" height="25.3292" fill="white"/>
</defs>
</svg>