<svg width="28" height="28" viewBox="0 0 28 28" fill="none" xmlns="http://www.w3.org/2000/svg">
<path d="M20.6321 0.94443L17.2259 0.938965C13.3991 0.938965 10.926 3.47626 10.926 7.4034V10.3839H7.50118C7.20523 10.3839 6.96558 10.6239 6.96558 10.9198V15.2383C6.96558 15.5342 7.2055 15.7739 7.50118 15.7739H10.926V26.6707C10.926 26.9667 11.1657 27.2063 11.4616 27.2063H15.93C16.226 27.2063 16.4656 26.9664 16.4656 26.6707V15.7739H20.4701C20.766 15.7739 21.0057 15.5342 21.0057 15.2383L21.0073 10.9198C21.0073 10.7777 20.9508 10.6416 20.8505 10.5411C20.7502 10.4405 20.6135 10.3839 20.4714 10.3839H16.4656V7.8573C16.4656 6.64289 16.755 6.0264 18.337 6.0264L20.6316 6.02558C20.9273 6.02558 21.1669 5.78565 21.1669 5.48997V1.48004C21.1669 1.18463 20.9275 0.944977 20.6321 0.94443Z" fill="#BC9E5F"/>
<defs>
<rect width="26.2674" height="26.2674" fill="white" transform="translate(0.932861 0.938965)"/>
</defs>
</svg>