<svg width="26" height="27" viewBox="0 0 26 27" fill="none" xmlns="http://www.w3.org/2000/svg">
<path d="M13.3353 18.6495C16.2496 18.6495 18.6122 16.1798 18.6122 13.1333C18.6122 10.0869 16.2496 7.61719 13.3353 7.61719C10.4209 7.61719 8.05835 10.0869 8.05835 13.1333C8.05835 16.1798 10.4209 18.6495 13.3353 18.6495Z" fill="#BC9E5F"/>
<path d="M19.6266 0.120347C16.482 0.030197 10.1879 0.030197 7.04324 0.120347C5.40679 0.167313 3.55162 0.593159 2.38568 1.89497C1.17409 3.24816 0.716256 4.88304 0.669819 6.71198C0.588202 9.92207 0.669819 19.5569 0.669819 19.5569C0.72299 21.3857 1.17409 23.0208 2.38568 24.3739C3.55162 25.6762 5.40679 26.1016 7.04324 26.1486C10.1879 26.2387 16.482 26.2387 19.6266 26.1486C21.2631 26.1016 23.1183 25.6758 24.2842 24.3739C25.4958 23.0208 25.9536 21.3859 26.0001 19.5569V6.71198C25.9536 4.88304 25.4958 3.24816 24.2842 1.89497C23.1179 0.592739 21.2627 0.167313 19.6266 0.120347ZM13.3345 21.6845C11.7168 21.6845 10.1355 21.183 8.7904 20.2435C7.44533 19.3041 6.39698 17.9687 5.77791 16.4064C5.15885 14.8441 4.99687 13.125 5.31247 11.4664C5.62807 9.80789 6.40706 8.28442 7.55095 7.08868C8.69483 5.89293 10.1522 5.07862 11.7389 4.74872C13.3255 4.41881 14.97 4.58813 16.4646 5.23526C17.9592 5.8824 19.2366 6.97827 20.1353 8.38432C21.0341 9.79036 21.5138 11.4434 21.5138 13.1345C21.5138 15.4021 20.652 17.5768 19.1181 19.1802C17.5842 20.7837 15.5038 21.6845 13.3345 21.6845ZM21.5486 6.34928C21.225 6.3492 20.9088 6.24884 20.6398 6.06089C20.3709 5.87294 20.1613 5.60585 20.0375 5.29338C19.9138 4.98091 19.8814 4.6371 19.9446 4.30542C20.0078 3.97373 20.1636 3.66908 20.3924 3.42997C20.6212 3.19087 20.9126 3.02805 21.23 2.9621C21.5473 2.89615 21.8762 2.93004 22.1751 3.05948C22.4739 3.18892 22.7294 3.4081 22.9091 3.6893C23.0889 3.97049 23.1848 4.30109 23.1848 4.63928C23.1848 4.86388 23.1425 5.08627 23.0602 5.29377C22.978 5.50126 22.8575 5.68979 22.7055 5.84858C22.5536 6.00738 22.3732 6.13333 22.1747 6.21924C21.9762 6.30515 21.7634 6.34934 21.5486 6.34928Z" fill="#BC9E5F"/>
<defs>
<rect x="0.67041" width="25.3292" height="26.2674" fill="white"/>
</defs>
</svg>