<svg width="24" height="24" viewBox="0 0 24 24" fill="none" xmlns="http://www.w3.org/2000/svg">
<path d="M11.3777 19.0638L7.53926 22.9344L6.75666 22.3389L6.60759 18.8033L4.14799 17.5379L2.91819 15.0444L2.17285 12.2531V7.93591L2.91819 4.66081L4.48339 2.94882L6.60759 2.20448L9.62619 1.72066L13.9491 1.90674L17.564 2.20448L19.9118 3.61873L21.5888 5.33072L22.2969 13.7046L21.2534 16.5331L18.0485 19.0638H11.3777Z" fill="#CAB47C"/>
<path d="M22.9563 5.74768L22.9495 5.72061C22.4012 3.50779 19.9291 1.13332 17.6588 0.639327L17.6332 0.634063C13.9613 -0.0651955 10.2381 -0.0651955 6.56683 0.634063L6.54047 0.639327C4.271 1.13332 1.79891 3.50779 1.24981 5.72061L1.24378 5.74768C0.565876 8.83795 0.565876 11.9718 1.24378 15.0621L1.24981 15.0892C1.77548 17.2076 4.06348 19.4729 6.24897 20.0959V22.5661C6.24897 23.4601 7.3404 23.8992 7.96106 23.254L10.4682 20.6526C11.0119 20.6829 11.556 20.6999 12.1 20.6999C13.9485 20.6999 15.7976 20.5254 17.6332 20.1758L17.6588 20.1705C19.9291 19.6765 22.4012 17.3021 22.9495 15.0892L22.9563 15.0622C23.6342 11.9718 23.6342 8.83795 22.9563 5.74768ZM20.9723 14.614C20.6062 16.0576 18.7292 17.8524 17.2378 18.184C15.2854 18.5546 13.3175 18.713 11.3516 18.6586C11.3125 18.6576 11.2749 18.6727 11.2476 18.7007C10.9686 18.9865 9.41704 20.5765 9.41704 20.5765L7.46995 22.5712C7.32759 22.7194 7.07752 22.6186 7.07752 22.4141V18.3222C7.07752 18.2546 7.02916 18.1971 6.96265 18.1841C6.96228 18.184 6.9619 18.184 6.96152 18.1839C5.47013 17.8523 3.59385 16.0575 3.22703 14.6139C2.61691 11.8206 2.61691 8.989 3.22703 6.19573C3.59385 4.7521 5.47013 2.95733 6.96152 2.62575C10.3714 1.97837 13.8287 1.97837 17.2378 2.62575C18.7299 2.95733 20.6062 4.7521 20.9723 6.19573C21.5831 8.98908 21.5831 11.8207 20.9723 14.614Z" fill="#CAB47C"/>
<path d="M16.0024 17.3796C15.7289 17.2969 15.4683 17.2413 15.2263 17.1412C12.7183 16.1045 10.4102 14.7671 8.58187 12.7169C7.54215 11.551 6.72839 10.2348 6.04049 8.84183C5.71428 8.18125 5.43937 7.4948 5.15916 6.81283C4.90366 6.19092 5.28 5.54842 5.67628 5.07984C6.04812 4.64008 6.52661 4.30352 7.0448 4.05549C7.44926 3.86188 7.84824 3.9735 8.14363 4.31507C8.78221 5.05352 9.36877 5.82975 9.84375 6.68573C10.1358 7.21222 10.0557 7.85579 9.52635 8.2141C9.3977 8.30119 9.28046 8.40341 9.16061 8.50178C9.0555 8.58798 8.95659 8.67507 8.88453 8.79179C8.75283 9.00536 8.74654 9.25724 8.83135 9.48943C9.48412 11.2768 10.5844 12.6666 12.39 13.4151C12.6789 13.5349 12.9691 13.6744 13.3019 13.6357C13.8594 13.5708 14.0399 12.9616 14.4305 12.6433C14.8123 12.3323 15.3002 12.3281 15.7115 12.5874C16.1229 12.8468 16.5217 13.1253 16.9181 13.4067C17.3072 13.6829 17.6945 13.9532 18.0535 14.2681C18.3985 14.5709 18.5174 14.9681 18.3231 15.3791C17.9673 16.1317 17.4496 16.7578 16.7029 17.1574C16.492 17.2701 16.2402 17.3066 16.0024 17.3796C16.2402 17.3066 15.7289 17.2968 16.0024 17.3796Z" fill="#112542"/>
<path d="M12.1398 3.19486C15.4203 3.28642 18.1146 5.45551 18.692 8.6868C18.7904 9.23737 18.8254 9.8003 18.8692 10.3591C18.8876 10.5942 18.754 10.8175 18.4994 10.8205C18.2365 10.8237 18.1181 10.6045 18.1011 10.3695C18.0673 9.9044 18.0438 9.43725 17.9795 8.97601C17.6399 6.54126 15.6913 4.52694 13.2589 4.0947C12.8929 4.02962 12.5183 4.01253 12.1475 3.97377C11.9131 3.94924 11.6061 3.9351 11.5542 3.64482C11.5106 3.40144 11.7168 3.20766 11.9494 3.19522C12.0126 3.19172 12.0763 3.19459 12.1398 3.19486C12.0763 3.19459 15.4203 3.28642 12.1398 3.19486Z" fill="#112542"/>
<path d="M17.1251 9.63414C17.1197 9.67496 17.1169 9.77091 17.0929 9.86131C17.0058 10.1895 16.5065 10.2305 16.3915 9.89935C16.3575 9.80107 16.3523 9.68928 16.3522 9.58348C16.351 8.89121 16.2 8.19966 15.8496 7.59735C15.4894 6.9783 14.9392 6.4579 14.2938 6.143C13.9035 5.95262 13.4814 5.83428 13.0537 5.76375C12.8668 5.73296 12.6778 5.71425 12.49 5.6882C12.2623 5.6567 12.1408 5.51214 12.1515 5.28863C12.1616 5.07918 12.3152 4.92854 12.5443 4.94143C13.2972 4.98403 14.0243 5.14614 14.6936 5.49925C16.0547 6.21739 16.8322 7.35093 17.0591 8.86454C17.0693 8.9331 17.0859 9.00104 17.0911 9.06987C17.1039 9.23985 17.112 9.41001 17.1251 9.63414C17.112 9.41001 17.1197 9.67496 17.1251 9.63414Z" fill="#112542"/>
<path d="M15.0847 9.55472C14.8102 9.55964 14.6633 9.40828 14.635 9.15756C14.6153 8.98275 14.5998 8.80561 14.5579 8.63555C14.4755 8.3006 14.2968 7.99018 14.0139 7.78494C13.8804 7.688 13.7292 7.61738 13.5707 7.57182C13.3694 7.5139 13.1603 7.52984 12.9594 7.48079C12.7413 7.42753 12.6206 7.25155 12.655 7.04765C12.6861 6.8621 12.8673 6.71727 13.0708 6.73195C14.3427 6.82343 15.2517 7.47855 15.3814 8.97031C15.3906 9.07557 15.4013 9.18683 15.3779 9.28753C15.3377 9.45993 15.2096 9.5463 15.0847 9.55472C15.2096 9.5463 14.8102 9.55964 15.0847 9.55472Z" fill="#112542"/>
<defs>
<rect width="22.8756" height="23.9396" fill="white" transform="translate(0.707275)"/>
</defs>
</svg>