<svg width="25" height="24" viewBox="0 0 25 24" fill="none" xmlns="http://www.w3.org/2000/svg">
<path d="M13.0292 23.3048C19.4854 23.3048 24.7192 18.071 24.7192 11.6147C24.7192 5.15848 19.4854 -0.0753326 13.0292 -0.0753326C6.57293 -0.0753326 1.33911 5.15848 1.33911 11.6147C1.33911 18.071 6.57293 23.3048 13.0292 23.3048Z" fill="#CAB47C"/>
<path d="M4.98414 10.5726L18.3202 5.43062C18.9392 5.20701 19.4798 5.58162 19.2792 6.51757L19.2804 6.51641L17.0097 17.2141C16.8414 17.9726 16.3907 18.157 15.7602 17.7997L12.3023 15.2512L10.6344 16.8579C10.45 17.0424 10.2944 17.198 9.93706 17.198L10.1826 13.6789L16.5913 7.88921C16.8702 7.6437 16.529 7.50538 16.1613 7.74975L8.24151 12.7361L4.82738 11.671C4.08623 11.4359 4.07009 10.9299 4.98414 10.5726Z" fill="#112542"/>
<defs>
<rect width="23.9396" height="23.4076" fill="white" transform="translate(0.882568)"/>
</defs>
</svg>