<svg width="18" height="24" viewBox="0 0 18 24" fill="none" xmlns="http://www.w3.org/2000/svg">
<path d="M8.99975 11.7376C11.633 11.7376 13.7679 9.11006 13.7679 5.86882C13.7679 2.62752 13.067 0 8.99975 0C4.9325 0 4.23145 2.62752 4.23145 5.86882C4.23145 9.11006 6.36634 11.7376 8.99975 11.7376Z" fill="#D9B568"/>
<path d="M17.995 20.4616C17.9067 14.8153 17.179 13.2064 11.6103 12.188C11.6103 12.188 10.8264 13.2002 8.99932 13.2002C7.17225 13.2002 6.38824 12.188 6.38824 12.188C0.880307 13.1953 0.108337 14.7803 0.00683321 20.2782C-0.0014901 20.7271 -0.00534722 20.7507 -0.00683594 20.6986C-0.00649759 20.7962 -0.00609173 20.9769 -0.00609173 21.2918C-0.00609173 21.2918 1.31968 24.0001 8.99932 24.0001C16.6788 24.0001 18.0047 21.2918 18.0047 21.2918C18.0047 21.0895 18.0049 20.9487 18.0051 20.853C18.0036 20.8853 18.0006 20.8228 17.995 20.4616Z" fill="#D9B568"/>
<defs>
<rect width="18" height="24" fill="white"/>
</defs>
</svg>